<svg xmlns="http://www.w3.org/2000/svg" xmlns:xlink="http://www.w3.org/1999/xlink" width="744.094" height="1052.362"><defs><linearGradient xlink:href="#g" id="j" gradientUnits="userSpaceOnUse" gradientTransform="translate(-297.23 320.86)" x1="439.904" y1="455.739" x2="469.717" y2="557.748"/><linearGradient id="g"><stop offset="0" stop-color="#0f3060"/><stop offset=".271" stop-color="#0575ce"/><stop offset=".733" stop-color="#0575ce"/><stop offset="1" stop-color="#0f3060"/></linearGradient><linearGradient xlink:href="#b" id="k" gradientUnits="userSpaceOnUse" gradientTransform="translate(-297.23 320.86)" x1="382.802" y1="585.226" x2="347.443" y2="645.024"/><linearGradient id="b"><stop offset="0" stop-color="#092d61"/><stop offset="1" stop-color="#0575ce"/></linearGradient><linearGradient xlink:href="#c" id="l" gradientUnits="userSpaceOnUse" gradientTransform="translate(-297.23 320.86)" x1="415.814" y1="620.098" x2="436.356" y2="486.431"/><linearGradient id="c"><stop offset="0" stop-color="#0f3060"/><stop offset=".457" stop-color="#0575ce"/><stop offset=".738" stop-color="#0575ce"/><stop offset="1" stop-color="#0f3060"/></linearGradient><linearGradient xlink:href="#d" id="m" gradientUnits="userSpaceOnUse" gradientTransform="translate(34.352 723.04) scale(.24573)" x1="389.593" y1="763.302" x2="308.986" y2="420.016"/><linearGradient id="d"><stop offset="0" stop-color="#ff8000"/><stop offset=".663" stop-color="#fff4e1"/><stop offset=".75" stop-color="#fff4e1"/><stop offset="1" stop-color="#ff8400"/></linearGradient><linearGradient xlink:href="#e" id="n" gradientUnits="userSpaceOnUse" gradientTransform="translate(-297.23 320.86)" x1="528.82" y1="511.718" x2="458.469" y2="527.107"/><linearGradient id="e"><stop offset="0" stop-color="#fff"/><stop offset="1" stop-color="#fff" stop-opacity="0"/></linearGradient><linearGradient xlink:href="#f" id="o" gradientUnits="userSpaceOnUse" gradientTransform="translate(34.352 723.04) scale(.24573)" x1="197.178" y1="703.802" x2="146.542" y2="785.904"/><linearGradient id="f"><stop offset="0" stop-color="#ffc768"/><stop offset=".378" stop-color="#ff8400"/><stop offset=".774" stop-color="#ff8400"/><stop offset="1" stop-color="#ffc768"/></linearGradient><linearGradient xlink:href="#e" id="p" gradientUnits="userSpaceOnUse" gradientTransform="matrix(1.0334 0 0 1.01383 -309.91 314.183)" x1="413.632" y1="484.601" x2="423.525" y2="541.833"/><linearGradient xlink:href="#a" id="q" gradientUnits="userSpaceOnUse" gradientTransform="translate(34.352 723.04) scale(.24573)" x1="409.696" y1="559.364" x2="467.886" y2="676.035"/><linearGradient id="a"><stop offset="0" stop-color="#ff8000"/><stop offset=".341" stop-color="#ffc768"/><stop offset=".712" stop-color="#ffc768"/><stop offset="1" stop-color="#ff8400"/></linearGradient><linearGradient xlink:href="#h" id="r" gradientUnits="userSpaceOnUse" gradientTransform="translate(34.352 723.04) scale(.24573)" x1="522.636" y1="168.687" x2="585.933" y2="161.109"/><linearGradient id="h"><stop offset="0" stop-color="#ff8000"/><stop offset=".5" stop-color="#fff4e1"/><stop offset=".75" stop-color="#fff4e1"/><stop offset="1" stop-color="#ff8400"/></linearGradient><linearGradient xlink:href="#a" id="s" gradientUnits="userSpaceOnUse" gradientTransform="translate(34.352 723.04) scale(.24573)" x1="481.49" y1="417.5" x2="405.411" y2="316.79"/><linearGradient xlink:href="#e" id="t" gradientUnits="userSpaceOnUse" gradientTransform="translate(-297.23 320.86)" x1="473.092" y1="499.584" x2="457.69" y2="477.6"/><linearGradient xlink:href="#e" id="u" gradientUnits="userSpaceOnUse" gradientTransform="translate(-297.23 320.86)" x1="394.341" y1="501.802" x2="446.313" y2="485.378"/><linearGradient xlink:href="#e" id="v" gradientUnits="userSpaceOnUse" gradientTransform="translate(-297.23 320.86)" x1="395.813" y1="590.733" x2="369.553" y2="572.169"/><linearGradient xlink:href="#i" id="w" gradientUnits="userSpaceOnUse" gradientTransform="translate(34.352 723.04) scale(.24573)" x1="297.053" y1="667.162" x2="310.455" y2="713.866"/><linearGradient id="i"><stop offset="0" stop-color="#212a3a"/><stop offset="1" stop-color="#404e67" stop-opacity="0"/></linearGradient><linearGradient xlink:href="#i" id="x" gradientUnits="userSpaceOnUse" gradientTransform="matrix(.09308 0 0 .18605 131.942 665.872)" x1="246.304" y1="690.027" x2="366.879" y2="632.16"/><linearGradient xlink:href="#i" id="y" gradientUnits="userSpaceOnUse" gradientTransform="matrix(-.09281 -.00704 .01407 -.18552 186.2 929.708)" x1="301.052" y1="645.899" x2="367.946" y2="654.721"/><linearGradient xlink:href="#i" id="z" gradientUnits="userSpaceOnUse" gradientTransform="translate(98.31 642.637) scale(.24573)" x1="279.817" y1="688.324" x2="386.786" y2="667.635"/><linearGradient y2="702.893" x2="266.215" y1="668.301" x1="338.144" gradientTransform="translate(25.55 660.77) scale(.24573)" gradientUnits="userSpaceOnUse" id="A" xlink:href="#i"/></defs><path d="M52.514 963.96c-.598-1.315-1.087-2.498-1.087-2.63 0-.133-2.08-11.075-2.317-13.887-1.035-12.277-2.668-13.453-2.212-24.399.276-6.63-.644-8.892 1.313-14.315 4.031-11.167 6.987-15.56 12.225-18.174 4.25-2.12 8.237-1.832 11.98.865.986.711 4.295 2.95 7.354 4.977 3.058 2.026 6.691 4.483 8.072 5.46 1.381.976 3.685 2.384 5.12 3.13 2.53 1.315 2.624 1.335 3.137.67 1.128-1.458 3.85-5.553 5.321-7.508 7.373-9.79.43-8.702-1.305-9.213-2.728-.803-3.877-1.98-6.427-4.967-5.922-6.94-8.728-14.662-9.143-24.204-.481-11.08.633-20.015 5.498-25.1 2.086-2.18 6.5-5.346 10.535-7.556 3.418-1.87 24.38-5.782 26.219-4.97.919.407-3.638-11.638-1.016-27.298.521-3.111 4.06-12.738 4.434-13.393.923-1.618 16.135-6.824 20.462-9.365 4.835-2.84 15.29-9.68 16.078-14.766 1.731-11.179 2.038-15.956 2.76-16.375 1.074-.625 8.252 14.175 3.393 28.13-.958 2.755-5.532 9.15-7.58 11.824-1.474 1.926 1.728 2.826 3.57 5.607 1.676 2.529 2.777 8.71 2.992 11.914.22 3.271-.815 9.982-1.742 11.299-.376.533-.53 1.057-.344 1.171.184.114 1.434-.035 2.777-.33 1.343-.296 4.254-.767 6.468-1.047 3.943-.497 4.084-.49 6.76.333 4.014 1.234 23.538 5.951 11.08 60.507-4.128 18.075-23.39 41.925-25.811 40.078l-5.964-4.547-6.873 10.19c-3.508 3.603-7.291 7.08-9.522 8.753-3.52 2.64-10.565 6.798-11.516 6.798-.245 0-1.632.57-3.083 1.265-4.195 2.012-10.479 3.661-17.135 4.098-25.771 1.67-15.94-1.442-37.278-11.775-1.683-.815-5.558 3.297-10.227 7.546-4.986 4.536-7.603 7.988-9.58 12.638a625.901 625.901 0 01-2.316 5.365c-1.645 3.748-2.998 8.933-3.199 12.258-.098 1.627-.315 3.042-.481 3.145-.167.103-.793-.888-1.39-2.202zm28.332-45.91c3.303-.835 3.665-1.019 7.217-3.677 2.546-1.905 4.124-5.345 4.8-5.646 4.433-1.966-3.307-3.736-6.201-5.688-2.894-1.952-6.658-3.395-9.221-5.353-2.564-1.956-4.784-3.482-4.933-3.39-.15.092-.275 1.405-.279 2.918-.01 4.414-.602 8.842-1.429 10.695-.421.943-.846 2.76-.945 4.04-.228 2.962.462 4.386 2.913 6.02 2.066 1.377 2.924 1.385 8.078.082zm119.706-83.584c-1.076-7.225-.185-17.16-5.815-20.777-12.988-8.345-14.413-.07-15.21 1.759-1.31 3.008-2.118 5.469-1.123 8.776 3.057 10.16 6.967 19.158 8.823 26.38 2.13 8.289 4.478 13.53 4.713 20.03.166 4.614.123 5.099-.556 6.165-.966 1.515-15.553 5.227-22.898 7.391-2.522.743-.288 6.122-.577 7.893-.289 1.77-4.237 11.667-2.967 13.657 12.529 19.633 40.235-40.207 35.61-71.274zm-26.989 48.272c1.96-.471 3.792-1.046 4.072-1.278.28-.231.99-.384 1.58-.34 1.054.08 5.182-1.219 5.5-1.73.089-.145 3.772-2.066 3.035-2.554-.737-.488-15.132-11.07-17.196-12.147-23.77-12.393-36.266-13.246-44.114-11.665-13.445 2.709-25.057 9.526-26.454 11.207-.422.508 21.05-6.66 36.29.871 2.816 1.392 8.63 3.783 13 8.463 3.993 4.275 7.634 8.798 10.5 9.562 3.106.828 9.472.648 13.787-.39zm-28.657-51.097c7.526-1.317 19.186-16.952 18.279-18.416-.123-.198 2.255-4.145 1.869-4.222-14.084-2.808-13.745-16.832-13.948-16.957-.203-.125-20.765 9.71-25.504 11.758-4.02 1.739.575 12.103 3 18.535 1.078 2.862 7.017 6.678 9.407 8.234 2.828 1.84 6.254 1.18 6.897 1.068zm16.22-47.717c4.064-3.203 14.888-19.234 13.74-25.74-4.68-26.505-6.696-10.096-6.997-7.731-.124.98-.478 3.15-.787 4.822a137.775 137.775 0 00-.875 5.365c-.172 1.279-.648 3.532-1.058 5.008a267.644 267.644 0 00-1.439 5.45c-.381 1.523-1.665 5.273-2.852 8.334-1.188 3.061-2.16 5.638-2.16 5.728 0 .447.825.027 2.428-1.236z" fill="url(#j)" transform="translate(-152.932 -3059.705) scale(4.20707)"/><path d="M53.58 963.12c6.352-26.32 12.1-29.27 27.227-39.026-3.328-1.891-11.518-8.16-11.496-11.496.057-9.742 1.667-26.722-9.076-19.665-20.385 13.392-13.009 55.968-6.656 70.187z" fill="url(#k)" fill-rule="evenodd" transform="translate(-152.932 -3059.705) scale(4.20707)"/><path d="M75.933 920.723c8.981 6.786 16.92 12.785 22.554 15.967 54.941 2.778 68.66-27.594 69.658-52.493-4.89.224-13.223-.973-17.714-7.74-11.214 3.68-45.166 14.003-45.757 16.322-3.065 12.036-12.175 21.756-28.741 27.944z" fill="url(#l)" fill-rule="evenodd" transform="translate(-152.932 -3059.705) scale(4.20707)"/><path d="M171.275 910.581c33.185-24.7 28.914-74.159 29.45-76.691 1.363-6.439-6.65-28.252-16.274-24.25-16.024 6.664 11.277 44.445 7.614 65.166-.763 4.32-13.99 7.503-22.98 8.899-1.037.16-.116 14.095-4.627 20.51-.645.917 6.21 6.818 6.817 6.366z" fill="url(#m)" fill-rule="evenodd" transform="translate(-152.932 -3059.705) scale(4.20707)"/><path d="M175.904 907.191c42.492-41.749 20.982-116.278 6.146-94.51 20.377-4.12 23.618 64.267-6.146 94.51z" fill="url(#n)" fill-rule="evenodd" transform="translate(-152.932 -3059.705) scale(4.20707)"/><path d="M95.217 907.776c.786-1.06-13.881-6.083-22.746-14.065-.983-.885-1.142 12.912-2.07 18.665-.578 3.575 5.492 7.174 6.88 7.622 1.15.372 14.71-7.869 17.936-12.222z" fill="url(#o)" fill-rule="evenodd" transform="translate(-152.932 -3059.705) scale(4.20707)"/><path d="M83.585 868.013c-5.099-25.843 4.18-41.04 41.358-46.378.18.57 41.32-13.256 55.792-13.35-3.923 6.234.043 21.624 4.81 34.277 0 0-34.828 9.087-101.96 25.451z" fill="url(#p)" fill-rule="evenodd" transform="translate(-152.932 -3059.705) scale(4.20707)"/><path d="M101.655 863.894c4.412-1.58 17.008-5.39 32.055-.152 10.305 3.588 16.22 12.633 20.668 16.112 10.479 8.195 29.823-.908 33.321-.853 1.438.022-25.966-24.602-46.628-25.848-27.775-1.675-45.111 12.782-39.416 10.74z" fill="url(#q)" fill-rule="evenodd" transform="translate(-152.932 -3059.705) scale(4.20707)"/><path d="M169.427 741.435c-.153 8.404-2.797 28.464-11.307 42.173-3.893 6.27 14.52-8.277 16.502-20.78 1.09-6.878-5.069-28.09-5.195-21.393z" fill="url(#r)" fill-rule="evenodd" transform="translate(-152.932 -3059.705) scale(4.20707)"/><path d="M141.79 833.107c9.24-4.718 17.657-10.922 22.992-22.443.903-1.95-4.4-.058-8.476-5.844-4.035-5.729-3.083-11.543-6.54-11.078-10.8 1.453-25.2 11.638-25.2 11.638s.828 11.144 3.747 15.673c6.019 9.34 13.478 12.054 13.478 12.054z" fill="url(#s)" fill-rule="evenodd" transform="translate(-152.932 -3059.705) scale(4.20707)"/><path d="M156.092 803.781c2.725 9.889 17.873 8.097 14.706-11.152-1.365 1.996-4.776 12.957-14.706 11.152z" opacity=".552" fill="url(#t)" fill-rule="evenodd" transform="translate(-152.932 -3059.705) scale(4.20707)"/><path d="M140.485 832.283c-5.1-3.469-9.504-7.784-12.325-12.35-2.82-4.565-4.06-27.847.687-33.633 2.608-6.364 11.841-12.515 22.097-15.231-19.495 22.605-13.178 56.867 4.074 53.535.862-.166-12.826 7.73-14.533 7.679z" fill="url(#u)" fill-rule="evenodd" transform="translate(-152.932 -3059.705) scale(4.20707)"/><path d="M72.322 893.03c3.81 2.818 20.24 15.535 23.86 13.522-8.41 20.56-30.553 3.143-23.86-13.523z" fill="url(#v)" fill-rule="evenodd" transform="translate(-152.932 -3059.705) scale(4.20707)"/><path d="M436.3 211.545c-16.607 9.678-36.573 20.504-40.537 30.291-13.304 27.95-18.29 78.107-14.24 75.226 39.48-28.073 85.188-35.856 101.82-50.891 49.285-44.555 68.419-136.66 58.062-123.008-33.526 44.198-87.974 58.397-105.106 68.382zM177.95 830.033s-46.619-32.244-45.76-42.59c7.14-85.96-8.117-90.977-15.806-90.065-9.289 1.101-57.562 31.576-66.979 117.623-6.833 62.439 17.839 159.993 21.597 165.271 19.448-52.268 11.86-94.336 106.947-150.239zM687.247 449.2c-2.32-64.443-41.12-108.752-67.47-98.375-11.18 4.403-18.687 34.41-14.761 53.015 3.481 16.502 27.204 80.361 28.91 85.76 4.033 12.765 31.262 90.997 26.422 128.587-4.243 32.948-99.749 44.348-99.749 44.348s-1.605 26.818-4.897 44.94c-4.047 22.275-12.071 39.757-12.071 39.757s20.793 19.37 21.633 19.35c.84-.022 130.876-70.312 121.983-317.382zm-99.694 199.624c6.722-1.882 46.413-12.376 44.285-13.771-14.728-9.662-31.49-21.823-59.562-43.657-155.853-121.216-297.418-19.121-294.628-20.049 25.88-8.607 53.209-13.471 91.177-10.935 30.582 2.042 78.656 17.544 120.768 67.744 15.664 18.672 33.438 31.341 97.96 20.668zm-69.521-263.112c4.715-4.08 21.105-34.975 18.153-35.693-41.358-10.058-45.387-28.357-49.435-48.266-3.791-18.648-3.206-21.308-11.041-18.72-63.304 20.91-80.814 32.4-90.5 40.44-15.174 12.592-4.53 46.43 1.402 59.878 8.27 18.744 38.673 52.663 52.817 55.394 20.631 3.984 69.39-38.283 78.604-53.033zm46.008-114.184c-3.43-14.031-14.453-32.103-17.39-32.103-2.766 0-32.053 22.663-39.617 30.559-17.168 17.92-8.801 50.396 10.243 61.535 32.235 18.854 55.907-22.596 46.764-59.99zm-24.304-53.667c14.102-14.088 32.85-37.213 37.836-72.355 1.953-13.773 3.088-25.888-5.478-53.12-1.986-6.312-8.02-24.464-8.246-22.072-4.456 47.22-10.984 99.65-41.803 155.374-9.673 17.49-4.471 14.311 17.69-7.827zM208.98 499.096c-16.801 70.472 27.721 163.026 63.788 168.302 34.864 5.1 134.815-25.078 187.235-39.655 13.734-3.819 21.122-1.827-9.261-27.28-47.635-32.385-86.081-36.555-124.435-32.201-42.306 4.801-74.007 17.323-71.041 14.84 19.397-16.242 53.945-45.285 120.693-58.437 29.011-5.716 73.783-6.218 127.836 14.893 67.047 26.187 101.969 65.022 130.315 78.184 10.095 4.686 13.7 2.507 17.689-9.206 6.682-19.624-33.937-142.154-48.653-177.885-22.457-54.527 3.744-80.589-1.983-79.326-27.778 6.123-52.273 23.977-72.807 42.362-50.194 44.94-80.787 54.513-85.327 54.127-14.335-1.219-41.156-26.59-50.9-39.472-6.219-8.22-117.502 13.26-150.318 41.769-.75.652-26.071 16.891-32.831 48.985zm-35.656 306.816c36.704-15.4 72.639-48.126 69.53-48.667-19.055-3.314-89.331-51.468-89.283-50.969 2.414 24.851-3.002 47.181-5.473 71.812-1.03 10.272 12.663 26.186 25.226 27.824zm118.437-107.721c-7.022 15.652-14.353 77.204-115.822 116.703-2.94 1.144 85.033 61.299 89.82 61.509 290.517 12.753 288.055-208.479 284.2-214.056-.559-.808-25.407.058-44.653-9.075-1.467-.696-14.523-7.425-22.307-17.56-2.64-3.439-3.05-5.307-12.834-2.464-45.28 13.159-180.464 61.663-178.404 64.943zm-90.504-107.909c-51.878-181.267 130.18-189.677 159.046-196.656 22.323-5.398 17.459-7.497 12.752-28.61-6.61-29.644-4.55-55.484 1.115-83.183 5.358-26.192 8.121-39.437 19.437-52.57 9.12-10.586 60.513-34.795 73.253-40.905 54.294-26.04 75.037-54.664 81.088-77.177 4.266-15.872 10.509-54.99 7.703-82.952-.69-6.883 3.75 3.902 25.84 72.536 11.287 35.07 5.729 77.179-29.87 115.197-4.835 5.163-2.49 6.186 4.011 16.929 13.508 22.32 20.976 50.232 18.872 70.538-1.724 16.636-8.835 32.367 1.336 31.144 1.47-.176 46.397-6.978 77.151 12.57 20.827 13.237 50.496 38.612 42.794 144.61-16.863 232.112-130.27 282.627-131.066 282.654-1.92.066-23.137-21.964-24.393-19.37C475.3 889.375 341.12 884.548 266.287 885.96c-14.963.283-77.177-52.103-82.421-48.52-66.232 45.264-84.619 56.569-110.157 172.254-.978-1.834-35.415-62.919-33.986-185.77 1.172-100.655 56.162-148.157 80.608-145.417 29.677 3.326 44.571 18.809 86.368 46.269 7.46 4.901 33.82 20.84 39.818 20.696 14.944-.353 25.138-27.808 27.577-45.583 2.46-17.93 4.839-13.596-9.154-18.412-17.642-6.071-48.073-39.109-63.682-91.194z" fill="#2c3b54"/><path d="M106.113 892.834c6.476-3.533 43.234-15.025 43.564-15.746.24-.527-43.116 17.308-52.936 10.697-.592-.398 2.294 1.721 4.902 2.257.184.037.171 6.892-2.3 10.77-.693 1.088 5.267-7.157 6.77-7.978z" fill="url(#w)" fill-rule="evenodd" transform="translate(-152.932 -3059.705) scale(4.20707)"/><path d="M166.008 784.186c-4.03 2.813-9.585 6.743-10.721 9.774-.67 1.787-1.123-4.992 3.452-9.03 2.577-2.276 8.093-1.319 7.269-.744z" fill="url(#x)" fill-rule="evenodd" transform="translate(-152.932 -3059.705) scale(4.20707)"/><path d="M160.59 806.828c4.57 1.363 8.1-1.428 10.035-7.442.228-.71-.566 5.267-3.406 7.489-2.708 2.118-7.593-.334-6.63-.047z" fill="url(#y)" fill-rule="evenodd" transform="translate(-152.932 -3059.705) scale(4.20707)"/><path d="M172.19 813.036c6.475-3.533 13.104-2.992 18.755-2.738 3.751.17-7.066-4.205-19.354-3.521-1.313 1.117-5.213 7.636-10.71 14.237-.825.99 9.805-7.157 11.308-7.978z" fill="url(#z)" fill-rule="evenodd" transform="translate(-152.932 -3059.705) scale(4.20707)"/><path d="M110.559 827.011c3.802-.783 8.57-2.075 11.727-2.393 2.631-.265 5.929-1.747 8.462.978-1.41-1.934-4.108-5.84-4.948-8.397.765 3.005-2.655 3.43-3.505 3.564-19.118 3.02-30.618 8.169-36.42 17.742 10.99-8.502 23.966-11.346 24.684-11.494z" fill="url(#A)" fill-rule="evenodd" transform="translate(-152.932 -3059.705) scale(4.20707)"/></svg>